<svg version="1" xmlns="http://www.w3.org/2000/svg" width="682.667" height="682.667" viewBox="0 0 512.000000 512.000000"><path d="M214.5 1.9C172.7 11.4 142.1 33.8 123 69c-9.6 17.8-17.2 42.1-19.6 62.9-.2 2.5-.9 7.7-1.4 11.6-.9 7.1-.7 89.9.3 94.5.2 1.4.8 4.6 1.1 7 4.7 33.9 18.4 64 38.8 85 14 14.5 19.4 18 64.3 41.4 3.8 2 5.4 2.1 34 2 26 0 38.7-.6 45.8-1.9.9-.2 1.7-.2 1.7 0 0 .3-2.2 4.3-4.9 9-15.9 27.7-17.7 62.6-4.6 89 14 28.2 43.5 41.6 93 42.4l17 .3-.1-28.7c-.1-15.7-.3-28.8-.5-29-.3-.2-5.2-.5-11.1-.6-13.2-.2-19.5-1.3-27.3-4.8-7.5-3.4-13-8.8-16.3-16.1-2.1-4.5-2.6-7.3-2.8-16-.4-12 1.1-20.1 5.6-31.9 7-18 25.2-41.4 46.3-59.6 3.7-3.2 6.6-6.2 6.5-6.7-.2-.4-10.6-11.1-23.2-23.8l-22.9-23-4.1 3.4C321 289.7 307 296.8 286.5 302c-21 5.4-50.6 3.3-68.7-4.6-27-11.9-42.5-33.6-47.3-66.4-1.8-12.1-1.4-81.7.4-92.5 4.2-24.2 12.3-41 26.1-54.5 14.6-14.3 33.7-21.3 57.6-20.9 17.7.2 30.2 4.2 41.4 13.1 19.7 15.5 30.5 39.2 34.5 75.5l.6 5.3h-52.4c-41.1 0-52.6.3-52.9 1.2-.2.7-.4 13.7-.4 28.8l.1 27.5 86.9.1h86.8l-.5-28c-.3-15.5-.8-29.2-1-30.6-.3-1.4-.8-5.2-1.1-8.5-.4-3.3-.8-7.1-1.1-8.5-.2-1.4-.7-4.1-.9-6-1.9-14.1-8.9-38-16.1-54-16-36.2-42.8-62.1-76-73.5C288.5.7 288.8.7 255 .4c-28.4-.2-33.5 0-40.5 1.5z"/></svg>