<?xml version="1.0" standalone="no"?>
<!DOCTYPE svg PUBLIC "-//W3C//DTD SVG 20010904//EN"
 "http://www.w3.org/TR/2001/REC-SVG-20010904/DTD/svg10.dtd">
<svg version="1.0" xmlns="http://www.w3.org/2000/svg"
 width="512.000000pt" height="512.000000pt" viewBox="0 0 512.000000 512.000000"
 preserveAspectRatio="xMidYMid meet">

<g transform="translate(0.000000,512.000000) scale(0.100000,-0.100000)"
fill="#000000" stroke="none">
<path d="M615 4998 c-81 -15 -223 -89 -287 -151 -122 -117 -189 -268 -190
-432 -2 -112 13 -177 64 -284 55 -116 150 -210 268 -268 101 -49 162 -63 277
-63 169 0 296 53 418 175 92 91 136 165 165 281 38 147 17 310 -57 443 -46 84
-159 196 -240 239 -120 63 -279 86 -418 60z"/>
<path d="M2950 5004 c-209 -25 -330 -53 -464 -108 -277 -115 -519 -335 -665
-606 -50 -94 -115 -285 -138 -410 -24 -133 -25 -450 0 -573 49 -241 148 -429
310 -584 102 -97 165 -139 320 -213 217 -103 417 -166 932 -295 410 -102 598
-156 740 -212 288 -113 461 -273 535 -493 32 -92 39 -313 15 -431 -65 -325
-329 -605 -670 -712 -128 -40 -218 -52 -390 -51 -240 0 -416 40 -620 139 -405
197 -715 547 -899 1015 -42 106 -97 298 -116 408 l-13 72 -114 0 -113 0 0
-920 0 -920 108 0 c59 0 112 4 117 8 6 4 82 95 169 202 88 107 167 203 177
214 16 18 19 17 86 -37 357 -287 817 -435 1283 -413 437 20 771 157 1046 430
248 247 383 546 415 919 33 403 -85 747 -342 991 -258 246 -597 379 -1444 570
-576 129 -777 212 -940 388 -83 90 -146 215 -171 338 -20 102 -14 301 11 395
82 295 340 537 661 617 121 30 405 33 534 4 282 -61 549 -225 742 -456 196
-234 351 -558 458 -957 l22 -83 105 0 105 0 -6 808 c-4 444 -9 831 -12 860
l-6 53 -116 -3 -117 -3 -140 -202 c-120 -173 -142 -200 -156 -190 -9 7 -64 48
-122 92 -243 184 -461 283 -724 330 -88 15 -327 27 -393 19z"/>
<path d="M615 3158 c-81 -15 -223 -89 -287 -151 -122 -117 -189 -268 -190
-432 -2 -112 13 -177 64 -284 55 -116 150 -210 268 -268 101 -49 162 -63 277
-63 169 0 296 53 418 175 92 91 136 165 165 281 38 147 17 310 -57 443 -46 84
-159 196 -240 239 -120 63 -279 86 -418 60z"/>
<path d="M615 1318 c-81 -15 -223 -89 -287 -151 -122 -117 -189 -268 -190
-432 -2 -112 13 -177 64 -284 55 -116 150 -210 268 -268 101 -49 162 -63 277
-63 169 0 296 53 418 175 92 91 136 165 165 281 38 147 17 310 -57 443 -46 84
-159 196 -240 239 -120 63 -279 86 -418 60z"/>
</g>
</svg>
